<svg width="144" height="144" viewBox="0 0 144 144" fill="none" xmlns="http://www.w3.org/2000/svg">
<path d="M25.9091 42L17 64.3447H35.6334L25.9091 42Z" fill="#222222"/>
<path d="M61.9091 42H25.9091L35.6334 64.3447L43.1818 81.6897L61.9091 42Z" fill="#FDFDFC"/>
<path d="M99.9091 42H61.9091L76.6383 81.6897L89 115H127L99.9091 42Z" fill="#FDFDFC"/>
<path d="M23.5674 35.0455H21.1949L20.3163 37.2492L8.65245 66.503L6.74013 71.2992H11.9036H31.0753L37.7084 86.5409L38.6238 88.6442H40.9177H71.8011L83.3159 119.672L84.1628 121.955H86.5972H131.967H136.999L135.248 117.237L105.593 37.3277L104.746 35.0455H102.312H23.5674ZM43.4377 64.8498L36.5202 48.9545H50.9378L43.4377 64.8498ZM95.0719 48.9545L117.001 108.045H93.8371L71.9079 48.9545H95.0719Z" fill="#222222" stroke="#FDFDFC" stroke-width="7"/>
</svg>
