<svg
  width="52"
  height="52"
  viewBox="0 0 52 52"
  fill="none"
  xmlns="http://www.w3.org/2000/svg"
  >
  <path
    d="M32 38H43L34 16H23L27.3448 26.6207L32 38Z"
    fill="white"
  />
  <path
    d="M23 16H12L14.5 21.3103L17 26.6207L23 16Z"
    fill="white"
  />
  <path
    d="M12 16L10 21.3103H14.5L12 16Z"
    fill="#222222"
  />
  <path
    d="M17 26.6207H27.3448L23 16L17 26.6207Z"
    fill="#222222"
  />
  <path
    d="M12 16L10 21.3103H14.5M12 16H23M12 16L14.5 21.3103M17 26.6207L14.5 21.3103M17 26.6207H27.3448M17 26.6207L23 16M23 16H34L43 38H32L27.3448 26.6207M23 16L27.3448 26.6207"
    stroke="#222222"
    stroke-width="2"
  />
</svg>