<svg width="48" height="48" viewBox="0 0 48 48" fill="none" xmlns="http://www.w3.org/2000/svg">
<rect width="48" height="48" rx="24" fill="white"/>
<path d="M30 36H41L32 14H21L25.3448 24.6207L30 36Z" fill="white"/>
<path d="M21 14H10L12.5 19.3103L15 24.6207L21 14Z" fill="white"/>
<path d="M10 14L8 19.3103H12.5L10 14Z" fill="#222222"/>
<path d="M15 24.6207H25.3448L21 14L15 24.6207Z" fill="#222222"/>
<path d="M9 14L7 19.3103H11.5M9 14H20M9 14L11.5 19.3103M11.5 19.3103L14 24.6207M20 14L14 24.6207M20 14H31L40 36H29L24.3448 24.6207M20 14L24.3448 24.6207M14 24.6207H24.3448" stroke="#222222" stroke-width="2"/>
</svg>